<svg version="1.1" xmlns="http://www.w3.org/2000/svg" xmlns:xlink="http://www.w3.org/1999/xlink" width="2335"
     height="2500" viewBox="0,0,239.09375,256">
  <g stroke="none" stroke-width="1" stroke-linecap="butt" stroke-linejoin="miter"
     stroke-miterlimit="10" stroke-dasharray="" stroke-dashoffset="0" font-family="none" font-weight="none"
     font-size="none" text-anchor="none" style="mix-blend-mode: normal">
    <g transform="translate(-14.72126,11.22409) scale(0.21056,0.23739)">
      <path
        d="M1182.669,996.74c-89.557,-1013.476 -160.11,-1042.906 -160.11,-1042.906c-66.363,16.177 -138.476,190.71 -138.476,190.71c-51.843,-24.46 -145.103,-19.1 -145.103,-19.1c0,0 -93.259,-5.36 -145.102,19.1c0,0 -72.113,-174.533 -138.476,-190.71c0,0 -68.02,28.456 -155.335,989.796l-15.105,-0.292h-29.332c-2.436,-0.097 -7.016,-0.585 -10.72,-1.267c-3.897,-0.78 -7.893,-1.462 -11.693,-2.631c-31.574,-8.088 -57.203,-28.65 -69.384,-58.372c-2.047,-3.411 -2.827,-7.601 -4.288,-11.402c-1.365,-3.898 -3.021,-7.601 -3.703,-11.596l-3.021,-11.792c-0.585,-3.898 -0.78,-7.796 -1.267,-11.694c-1.267,-15.69 0.195,-31.768 5.944,-45.801c5.652,-14.033 15.008,-26.994 27.968,-37.616c6.432,-5.262 13.351,-10.33 20.855,-14.617c3.8,-2.047 7.6,-4.19 11.596,-5.945c3.8,-1.851 8.38,-3.605 11.207,-4.677l2.63,-1.072c9.161,-3.606 14.813,-13.35 12.864,-23.388c-1.06355,-5.41948 -4.24115,-10.19248 -8.83077,-13.26449c-4.58963,-3.07201 -10.21353,-4.19019 -15.62923,-3.10751c-6.821,1.365 -11.888,2.534 -17.54,4.288c-5.555,1.657 -10.817,3.703 -16.08,5.847c-10.524,4.385 -20.854,9.745 -30.599,16.372c-19.49,13.058 -37.128,31.379 -48.432,53.89c-22.121,45.508 -19.49,98.229 0.78,141.107c9.94,21.926 25.823,42 44.729,57.787c18.905,15.982 41.22,26.994 64.316,33.328c5.75,1.754 11.694,2.826 17.639,3.898c6.237,0.974 12.668,2.923 20.172,3.41c9.94,0.683 39.467,3.899 39.467,3.899c18.808,1.266 35.764,5.36 54.182,7.016c55.546,7.893 167.126,15.007 390.286,13.935c481.888,2.34 443.59,-33.133 443.59,-33.133zM540.768,447.71c-27.481,0 -49.797,-22.317 -49.797,-49.798c0,-27.481 22.316,-49.796 49.797,-49.796c27.48,0 49.797,22.316 49.797,49.796c0,27.48 -22.316,49.797 -49.797,49.797zM808.072,564.356h-48.335c-1.29185,0.01575 -2.53027,-0.51484 -3.41,-1.461l-17.347,-17.346l-17.346,17.346c-0.90549,0.90887 -2.12737,1.43238 -3.41,1.461h-48.335v-9.745h46.288l18.418,-18.418c0.877,-1.656 2.631,-2.338 4.483,-2.338c1.559,0 3.118,0.584 4.093,1.949l18.807,18.807h46.289v9.745zM937.192,447.709c-27.48,0 -49.796,-22.316 -49.796,-49.797c0,-27.481 22.316,-49.796 49.797,-49.796c27.481,0 49.797,22.316 49.797,49.796c0,27.48 -22.316,49.797 -49.797,49.797z"
      ></path>
      <path
        d="M490.971,397.912c0,27.50212 22.29488,49.797 49.797,49.797c27.50212,0 49.797,-22.29488 49.797,-49.797c0,-27.50212 -22.29488,-49.797 -49.797,-49.797c-27.50212,0 -49.797,22.29488 -49.797,49.797zM887.396,397.912c0,27.50212 22.29488,49.797 49.797,49.797c27.50212,0 49.797,-22.29488 49.797,-49.797c0,-27.50212 -22.29488,-49.797 -49.797,-49.797c-27.50212,0 -49.797,22.29488 -49.797,49.797zM734.498,536.291l-18.418,18.418h-46.29v9.745h48.335c1.267,0 2.534,-0.487 3.41,-1.462l17.347,-17.346v-11.694c-1.754,-0.097 -3.606,0.682 -4.385,2.339zM756.326,562.992c0.877,0.877 2.144,1.462 3.411,1.462h48.335v-9.745h-46.288l-18.808,-18.809c-0.877,-1.364 -2.534,-1.949 -4.093,-1.949v11.694z"
      ></path>
    </g>
  </g>
</svg>
