<?xml version="1.0" encoding="UTF-8"?>
<svg version="1.1" xmlns="http://www.w3.org/2000/svg" width="512" height="512">
<path d="M0 0 C1.20049406 -0.00872064 1.20049406 -0.00872064 2.42524052 -0.01761746 C5.12400532 -0.03228879 7.82187076 -0.01829931 10.52062988 -0.00457001 C12.46814186 -0.00917611 14.41565036 -0.01552706 16.36315155 -0.02347898 C21.72802851 -0.04023539 27.09262224 -0.03189731 32.45750046 -0.01953411 C38.23808498 -0.0105117 44.01861961 -0.02443935 49.79919434 -0.0354538 C61.12856818 -0.05327369 72.45783623 -0.04938359 83.78721428 -0.03780323 C92.99190008 -0.02878282 102.19655617 -0.02753887 111.40124512 -0.0318985 C113.3636556 -0.0328179 113.3636556 -0.0328179 115.36571074 -0.03375587 C118.02314568 -0.03503472 120.68058062 -0.03633158 123.33801556 -0.03764623 C147.56630949 -0.04913871 171.79454987 -0.03722043 196.02283466 -0.01627585 C218.1503859 0.00270724 240.27784507 0.00100876 262.40539551 -0.01811981 C287.25373009 -0.0395285 312.102013 -0.04796347 336.95035553 -0.03567076 C339.59821064 -0.03439651 342.24606577 -0.03313903 344.8939209 -0.0318985 C346.84829677 -0.03097285 346.84829677 -0.03097285 348.84215498 -0.03002849 C358.03959861 -0.02656961 367.23700966 -0.03241553 376.43444824 -0.04181671 C387.63759776 -0.05301593 398.84063513 -0.05004045 410.04377174 -0.02869374 C415.76371054 -0.01815534 421.4834621 -0.01410892 427.20339966 -0.02729034 C432.43410968 -0.03916237 437.66445797 -0.03273775 442.89513493 -0.01138014 C444.7927823 -0.00689197 446.69045991 -0.00922955 448.58808804 -0.01888329 C451.15755532 -0.03095757 453.72576562 -0.01866467 456.29516602 0 C457.41356542 -0.014047 457.41356542 -0.014047 458.55455875 -0.02837777 C461.93621477 0.02109237 463.83638109 0.27710417 466.60320282 2.2887311 C468.46089151 4.95264738 468.66786023 7.19156705 468.77648926 10.40570831 C466.96411477 16.45070894 459.97260151 19.71789768 454.89758301 22.81586456 C453.19648228 23.87222297 451.4959935 24.92956728 449.79602051 25.98773956 C448.88690918 26.55170441 447.97779785 27.11566925 447.0411377 27.69672394 C441.84095221 30.94354917 436.68335473 34.25688536 431.52258301 37.56586456 C430.44911621 38.25333771 429.37564941 38.94081085 428.26965332 39.64911652 C421.72144907 43.84515532 415.18582622 48.0600311 408.6607666 52.29193878 C397.09586697 59.78550761 385.46928028 67.18370476 373.85852051 74.60590363 C363.04448238 81.51953242 352.23247085 88.43511922 341.46594238 95.42255402 C334.77842048 99.75600995 328.05009247 104.02482575 321.32336426 108.29706573 C314.87472599 112.39576693 308.44652529 116.52444888 302.04016113 120.68891144 C301.42205566 121.09045441 300.8039502 121.49199738 300.16711426 121.90570831 C299.58239349 122.30516663 298.99767273 122.70462494 298.39523315 123.11618805 C296.14758301 124.50336456 296.14758301 124.50336456 293.38931274 125.70780182 C290.06025839 127.33297358 287.72136264 128.82203746 285.14758301 131.50336456 C283.57309841 137.00712737 283.81911831 142.33454749 283.99523926 148.01508331 C284.0034835 149.63215573 284.00628121 151.24926423 284.00389099 152.8663559 C284.00954119 157.10931978 284.07730031 161.34884846 284.16186523 165.59088898 C284.28794013 172.38903885 284.32403686 179.18799429 284.35095024 185.98713875 C284.36998843 188.3588362 284.41844824 190.72856257 284.47108459 193.09972382 C284.48774814 194.55286619 284.50373036 196.00601659 284.5189209 197.45917511 C284.55536461 199.35943703 284.55536461 199.35943703 284.59254456 201.29808807 C284.14758301 204.50336456 284.14758301 204.50336456 282.74546814 206.91127777 C278.70387044 209.38812874 274.86312958 209.06052549 270.21008301 209.02094269 C269.20155273 209.02795197 268.19302246 209.03496124 267.15393066 209.04218292 C263.81820186 209.05979675 260.48332053 209.04812766 257.14758301 209.03461456 C254.8311751 209.03730849 252.51476829 209.04119008 250.19836426 209.04621124 C245.34278603 209.05211091 240.48750205 209.04352794 235.63195801 209.02484894 C229.40393655 209.00205952 223.17660455 209.01518004 216.9486084 209.03913879 C212.16510816 209.05358389 207.38177174 209.04899661 202.5982666 209.03862762 C200.3017163 209.03595679 198.00515118 209.03924256 195.70861816 209.04854584 C192.50037161 209.05868983 189.29324595 209.04323939 186.08508301 209.02094269 C185.13327148 209.02903961 184.18145996 209.03713654 183.20080566 209.04547882 C179.32863376 208.99555212 176.88215258 208.95361013 173.53878784 206.90433502 C171.62817881 203.60696591 171.77553137 201.36926115 171.95080566 197.57025909 C172.00262272 196.13993103 172.05443098 194.70960264 172.10623169 193.27927399 C172.1411031 192.52350193 172.1759745 191.76772987 172.21190262 190.98905563 C172.38285104 186.95647858 172.43751694 182.92143659 172.51477051 178.88617706 C172.62167414 173.76314674 172.76083993 168.64680155 173.01477051 163.52875519 C174.64264098 145.26804045 174.64264098 145.26804045 169.04263306 128.615242 C163.93423681 123.98863252 158.21728661 121.17490421 151.85377502 118.65077972 C147.84646618 116.95169596 144.39919687 114.59767054 140.83508301 112.12836456 C139.46659884 111.23503125 138.09575459 110.34529521 136.72180176 109.46039581 C136.00041016 108.99327179 135.27901855 108.52614777 134.5357666 108.04486847 C125.42714254 102.1655133 116.28198512 96.34254738 107.14758301 90.50336456 C82.71735179 74.88629574 82.71735179 74.88629574 71.46594238 67.58417511 C65.7143176 63.85717236 59.93272407 60.17807192 54.14758301 56.50336456 C47.02466683 51.97890575 39.91923401 47.42997971 32.84216309 42.83417511 C25.32961799 37.9608136 17.77928176 33.14649771 10.22644043 28.33588409 C7.19445164 26.40038534 4.16868587 24.45581081 1.14758301 22.50336456 C0.59233948 22.14466278 0.03709595 21.785961 -0.53497314 21.41638947 C-2.21087548 20.32994532 -3.88132564 19.23510553 -5.55163574 18.14008331 C-6.54381104 17.49128204 -7.53598633 16.84248077 -8.55822754 16.17401886 C-10.85241699 14.50336456 -10.85241699 14.50336456 -11.85241699 12.50336456 C-12.4335594 5.29719876 -12.4335594 5.29719876 -10.31658173 2.40543032 C-6.96709256 -0.1800091 -4.06096661 -0.05100538 0 0 Z " fill="#56A3FE" transform="translate(27.8524169921875,143.49663543701172)"/>
<path d="M0 0 C1.20049406 -0.00872064 1.20049406 -0.00872064 2.42524052 -0.01761746 C5.12400532 -0.03228879 7.82187076 -0.01829931 10.52062988 -0.00457001 C12.46814186 -0.00917611 14.41565036 -0.01552706 16.36315155 -0.02347898 C21.72802851 -0.04023539 27.09262224 -0.03189731 32.45750046 -0.01953411 C38.23808498 -0.0105117 44.01861961 -0.02443935 49.79919434 -0.0354538 C61.12856818 -0.05327369 72.45783623 -0.04938359 83.78721428 -0.03780323 C92.99190008 -0.02878282 102.19655617 -0.02753887 111.40124512 -0.0318985 C113.3636556 -0.0328179 113.3636556 -0.0328179 115.36571074 -0.03375587 C118.02314568 -0.03503472 120.68058062 -0.03633158 123.33801556 -0.03764623 C147.56630949 -0.04913871 171.79454987 -0.03722043 196.02283466 -0.01627585 C218.1503859 0.00270724 240.27784507 0.00100876 262.40539551 -0.01811981 C287.25373009 -0.0395285 312.102013 -0.04796347 336.95035553 -0.03567076 C339.59821064 -0.03439651 342.24606577 -0.03313903 344.8939209 -0.0318985 C346.84829677 -0.03097285 346.84829677 -0.03097285 348.84215498 -0.03002849 C358.03959861 -0.02656961 367.23700966 -0.03241553 376.43444824 -0.04181671 C387.63759776 -0.05301593 398.84063513 -0.05004045 410.04377174 -0.02869374 C415.76371054 -0.01815534 421.4834621 -0.01410892 427.20339966 -0.02729034 C432.43410968 -0.03916237 437.66445797 -0.03273775 442.89513493 -0.01138014 C444.7927823 -0.00689197 446.69045991 -0.00922955 448.58808804 -0.01888329 C451.15755532 -0.03095757 453.72576562 -0.01866467 456.29516602 0 C457.41356542 -0.014047 457.41356542 -0.014047 458.55455875 -0.02837777 C461.93621477 0.02109237 463.83638109 0.27710417 466.60320282 2.2887311 C468.46089151 4.95264738 468.66786023 7.19156705 468.77648926 10.40570831 C466.96411477 16.45070894 459.97260151 19.71789768 454.89758301 22.81586456 C453.19648228 23.87222297 451.4959935 24.92956728 449.79602051 25.98773956 C448.88690918 26.55170441 447.97779785 27.11566925 447.0411377 27.69672394 C441.84095221 30.94354917 436.68335473 34.25688536 431.52258301 37.56586456 C430.44911621 38.25333771 429.37564941 38.94081085 428.26965332 39.64911652 C421.72144907 43.84515532 415.18582622 48.0600311 408.6607666 52.29193878 C397.09586697 59.78550761 385.46928028 67.18370476 373.85852051 74.60590363 C363.04448238 81.51953242 352.23247085 88.43511922 341.46594238 95.42255402 C334.77842048 99.75600995 328.05009247 104.02482575 321.32336426 108.29706573 C314.87472599 112.39576693 308.44652529 116.52444888 302.04016113 120.68891144 C301.42205566 121.09045441 300.8039502 121.49199738 300.16711426 121.90570831 C299.58239349 122.30516663 298.99767273 122.70462494 298.39523315 123.11618805 C296.14758301 124.50336456 296.14758301 124.50336456 293.38931274 125.70780182 C290.06025839 127.33297358 287.72136264 128.82203746 285.14758301 131.50336456 C283.57309841 137.00712737 283.81911831 142.33454749 283.99523926 148.01508331 C284.0034835 149.63215573 284.00628121 151.24926423 284.00389099 152.8663559 C284.00954119 157.10931978 284.07730031 161.34884846 284.16186523 165.59088898 C284.28794013 172.38903885 284.32403686 179.18799429 284.35095024 185.98713875 C284.36998843 188.3588362 284.41844824 190.72856257 284.47108459 193.09972382 C284.48774814 194.55286619 284.50373036 196.00601659 284.5189209 197.45917511 C284.55536461 199.35943703 284.55536461 199.35943703 284.59254456 201.29808807 C284.14758301 204.50336456 284.14758301 204.50336456 282.74546814 206.91127777 C278.70387044 209.38812874 274.86312958 209.06052549 270.21008301 209.02094269 C269.20155273 209.02795197 268.19302246 209.03496124 267.15393066 209.04218292 C263.81820186 209.05979675 260.48332053 209.04812766 257.14758301 209.03461456 C254.8311751 209.03730849 252.51476829 209.04119008 250.19836426 209.04621124 C245.34278603 209.05211091 240.48750205 209.04352794 235.63195801 209.02484894 C229.40393655 209.00205952 223.17660455 209.01518004 216.9486084 209.03913879 C212.16510816 209.05358389 207.38177174 209.04899661 202.5982666 209.03862762 C200.3017163 209.03595679 198.00515118 209.03924256 195.70861816 209.04854584 C192.50037161 209.05868983 189.29324595 209.04323939 186.08508301 209.02094269 C185.13327148 209.02903961 184.18145996 209.03713654 183.20080566 209.04547882 C179.32863376 208.99555212 176.88215258 208.95361013 173.53878784 206.90433502 C171.62817881 203.60696591 171.77553137 201.36926115 171.95080566 197.57025909 C172.00262272 196.13993103 172.05443098 194.70960264 172.10623169 193.27927399 C172.1411031 192.52350193 172.1759745 191.76772987 172.21190262 190.98905563 C172.38285104 186.95647858 172.43751694 182.92143659 172.51477051 178.88617706 C172.62167414 173.76314674 172.76083993 168.64680155 173.01477051 163.52875519 C174.64264098 145.26804045 174.64264098 145.26804045 169.04263306 128.615242 C163.93423681 123.98863252 158.21728661 121.17490421 151.85377502 118.65077972 C147.84646618 116.95169596 144.39919687 114.59767054 140.83508301 112.12836456 C139.46659884 111.23503125 138.09575459 110.34529521 136.72180176 109.46039581 C136.00041016 108.99327179 135.27901855 108.52614777 134.5357666 108.04486847 C125.42714254 102.1655133 116.28198512 96.34254738 107.14758301 90.50336456 C82.71735179 74.88629574 82.71735179 74.88629574 71.46594238 67.58417511 C65.7143176 63.85717236 59.93272407 60.17807192 54.14758301 56.50336456 C47.02466683 51.97890575 39.91923401 47.42997971 32.84216309 42.83417511 C25.32961799 37.9608136 17.77928176 33.14649771 10.22644043 28.33588409 C7.19445164 26.40038534 4.16868587 24.45581081 1.14758301 22.50336456 C0.59233948 22.14466278 0.03709595 21.785961 -0.53497314 21.41638947 C-2.21087548 20.32994532 -3.88132564 19.23510553 -5.55163574 18.14008331 C-6.54381104 17.49128204 -7.53598633 16.84248077 -8.55822754 16.17401886 C-10.85241699 14.50336456 -10.85241699 14.50336456 -11.85241699 12.50336456 C-12.4335594 5.29719876 -12.4335594 5.29719876 -10.31658173 2.40543032 C-6.96709256 -0.1800091 -4.06096661 -0.05100538 0 0 Z M24.14758301 16.50336456 C27.20372915 18.94828148 29.99741478 21.14927947 33.23742676 23.24555206 C34.01046143 23.74715851 34.78349609 24.24876495 35.57995605 24.76557159 C36.40664795 25.29779327 37.23333984 25.83001495 38.08508301 26.37836456 C38.95753662 26.94281281 39.82999023 27.50726105 40.72888184 28.08881378 C48.17732731 32.89908885 55.65765775 37.65917746 63.14343262 42.41107941 C68.66218945 45.9155314 74.16478804 49.44293715 79.64758301 53.00336456 C86.12345172 57.20835263 92.62975576 61.36373142 99.14758301 65.50336456 C105.60177602 69.60299995 112.04626475 73.71582164 118.46008301 77.87836456 C125.33910987 82.34225482 132.23954184 86.77201152 139.14758301 91.19086456 C140.19792725 91.86278839 141.24827148 92.53471222 142.33044434 93.22699738 C147.31292224 96.41354918 152.29633745 99.59862931 157.28088379 102.78194427 C158.97751989 103.86563547 160.67391939 104.94969601 162.37023926 106.03388214 C164.49214827 107.38995019 166.61451462 108.74530299 168.73742676 110.09980011 C171.54509436 111.89444222 174.34784065 113.69638799 177.14758301 115.50336456 C178.47402832 116.35559601 178.47402832 116.35559601 179.82727051 117.22504425 C180.64453613 117.75774933 181.46180176 118.29045441 182.30383301 118.83930206 C183.02377441 119.30642609 183.74371582 119.77355011 184.48547363 120.25482941 C186.14758301 121.50336456 186.14758301 121.50336456 187.14758301 123.50336456 C187.26844469 125.68810639 187.32505921 127.87649456 187.35290527 130.06439972 C187.36795435 131.09067254 187.36795435 131.09067254 187.38330746 132.13767815 C187.41472982 134.35589316 187.4394789 136.57412602 187.46398926 138.79242706 C187.48238926 140.16051573 187.50122576 141.52859859 187.52050781 142.89667511 C187.58899546 147.97383625 187.64902263 153.05110867 187.71008301 158.12836456 C187.92664551 175.14398956 187.92664551 175.14398956 188.14758301 192.50336456 C214.54758301 192.50336456 240.94758301 192.50336456 268.14758301 192.50336456 C268.31806645 169.97565894 268.31806645 169.97565894 268.44543457 147.4477005 C268.49084473 143.08588409 268.49084473 143.08588409 268.51715088 141.0424881 C268.53174341 139.61855315 268.53853554 138.19452504 268.53912354 136.77051544 C268.5415419 134.61020481 268.56888014 132.45148522 268.60168457 130.2914505 C268.61056702 129.07455536 268.61944946 127.85766022 268.62860107 126.60388947 C269.24782342 122.90450387 270.25398696 121.80234016 273.14758301 119.50336456 C274.86968453 118.28899046 276.62717681 117.12389987 278.40930176 115.99945831 C279.43692627 115.34703156 280.46455078 114.6946048 281.52331543 114.02240753 C282.61619873 113.33549835 283.70908203 112.64858917 284.83508301 111.94086456 C285.97517831 111.21894794 287.11490518 110.49644916 288.25427246 109.77338409 C290.51840536 108.33675246 292.78375662 106.90212142 295.04992676 105.46869659 C298.99582421 102.96519135 302.91831417 100.42709623 306.83508301 97.87836456 C314.19172756 93.10246018 321.59215643 88.39662855 328.99597168 83.69428253 C334.56311312 80.15582467 340.11510064 76.59574714 345.64758301 73.00336456 C352.12347043 68.79840491 358.6297554 64.64299794 365.14758301 60.50336456 C372.27190632 55.97806947 379.37789959 51.42703147 386.45739746 46.83197784 C392.89977681 42.65440857 399.36669293 38.51551474 405.83508301 34.37836456 C406.90726074 33.69201935 407.97943848 33.00567413 409.08410645 32.29853058 C413.67076247 29.36305657 418.25877096 26.4300057 422.85852051 23.51508331 C423.52407959 23.09178741 424.18963867 22.66849152 424.87536621 22.23236847 C426.57003262 21.15490791 428.26691283 20.08093141 429.96398926 19.00727081 C430.6845752 18.51098175 431.40516113 18.01469269 432.14758301 17.50336456 C432.14758301 17.17336456 432.14758301 16.84336456 432.14758301 16.50336456 C297.50758301 16.50336456 162.86758301 16.50336456 24.14758301 16.50336456 Z " fill="#000000" transform="translate(27.8524169921875,143.49663543701172)"/>
<path d="M0 0 C11.39729158 9.66470745 20.09518314 23.54125337 22.625 38.41796875 C24.23937128 58.92760343 21.29098323 77.34926282 7.69335938 93.38452148 C-2.61035178 104.82681458 -17.41932536 113.39367446 -32.96582031 114.62280273 C-53.1864446 115.34707409 -70.47751763 111.97080234 -85.875 98.10546875 C-97.40937764 87.19349725 -105.05326421 71.89142881 -105.7109375 55.96484375 C-105.87889452 45.10702571 -105.80390386 35.49554016 -101.375 25.41796875 C-100.83166016 24.10699219 -100.83166016 24.10699219 -100.27734375 22.76953125 C-92.57504006 5.79835363 -78.3307337 -4.88153347 -61.515625 -11.75 C-40.72526515 -18.14934487 -16.86893895 -13.4143956 0 0 Z " fill="#00D4DC" transform="translate(297.375,381.58203125)"/>
<path d="M0 0 C11.39729158 9.66470745 20.09518314 23.54125337 22.625 38.41796875 C24.23937128 58.92760343 21.29098323 77.34926282 7.69335938 93.38452148 C-2.61035178 104.82681458 -17.41932536 113.39367446 -32.96582031 114.62280273 C-53.1864446 115.34707409 -70.47751763 111.97080234 -85.875 98.10546875 C-97.40937764 87.19349725 -105.05326421 71.89142881 -105.7109375 55.96484375 C-105.87889452 45.10702571 -105.80390386 35.49554016 -101.375 25.41796875 C-100.83166016 24.10699219 -100.83166016 24.10699219 -100.27734375 22.76953125 C-92.57504006 5.79835363 -78.3307337 -4.88153347 -61.515625 -11.75 C-40.72526515 -18.14934487 -16.86893895 -13.4143956 0 0 Z " fill="#00D4DC" transform="translate(473.375,333.58203125)"/>
<path d="M0 0 C11.39729158 9.66470745 20.09518314 23.54125337 22.625 38.41796875 C24.23937128 58.92760343 21.29098323 77.34926282 7.69335938 93.38452148 C-2.61035178 104.82681458 -17.41932536 113.39367446 -32.96582031 114.62280273 C-53.1864446 115.34707409 -70.47751763 111.97080234 -85.875 98.10546875 C-97.40937764 87.19349725 -105.05326421 71.89142881 -105.7109375 55.96484375 C-105.87889452 45.10702571 -105.80390386 35.49554016 -101.375 25.41796875 C-100.83166016 24.10699219 -100.83166016 24.10699219 -100.27734375 22.76953125 C-92.57504006 5.79835363 -78.3307337 -4.88153347 -61.515625 -11.75 C-40.72526515 -18.14934487 -16.86893895 -13.4143956 0 0 Z " fill="#00D4DC" transform="translate(121.375,333.58203125)"/>
<path d="M0 0 C10.23906578 7.73254248 18.72711365 17.59665562 20.6875 30.6875 C22.0102137 46.83249318 20.25332366 59.84801808 9.6875 72.6875 C2.06631594 81.51565891 -7.80631851 87.73002837 -19.61523438 88.91943359 C-36.25842927 89.95230219 -48.36602031 86.91475127 -61.27734375 76.03125 C-69.90636197 68.02533375 -74.97975631 57.73921602 -75.62890625 46.03125 C-76.18819388 29.34451548 -72.52277041 17.35708981 -61 4.9375 C-44.70456176 -10.48496833 -18.58433045 -12.3339951 0 0 Z " fill="#010100" transform="translate(99.3125,39.3125)"/>
<path d="M0 0 C10.23906578 7.73254248 18.72711365 17.59665562 20.6875 30.6875 C22.0102137 46.83249318 20.25332366 59.84801808 9.6875 72.6875 C2.06631594 81.51565891 -7.80631851 87.73002837 -19.61523438 88.91943359 C-36.25842927 89.95230219 -48.36602031 86.91475127 -61.27734375 76.03125 C-69.90636197 68.02533375 -74.97975631 57.73921602 -75.62890625 46.03125 C-76.18819388 29.34451548 -72.52277041 17.35708981 -61 4.9375 C-44.70456176 -10.48496833 -18.58433045 -12.3339951 0 0 Z " fill="#010100" transform="translate(387.3125,23.3125)"/>
<path d="M0 0 C2.20957066 0.04019169 4.41921191 0.07668238 6.62890625 0.109375 C12.00416221 0.19688467 17.37674665 0.33020281 22.75 0.5 C20.48644925 2.82431367 18.27687184 4.56397832 15.5234375 6.29296875 C14.24182739 7.10254028 14.24182739 7.10254028 12.93432617 7.9284668 C12.00724854 8.50894775 11.0801709 9.08942871 10.125 9.6875 C8.12866278 10.94753101 6.13257886 12.2079634 4.13671875 13.46875 C3.09177246 14.12746094 2.04682617 14.78617188 0.97021484 15.46484375 C-4.38770114 18.85101416 -9.72518175 22.26898826 -15.0625 25.6875 C-16.12202881 26.36562744 -17.18155762 27.04375488 -18.27319336 27.74243164 C-24.83915316 31.94740193 -31.39054209 36.17407165 -37.9309082 40.41870117 C-44.62666984 44.75754176 -51.36338419 49.03151426 -58.09838867 53.30908203 C-63.66553011 56.8475399 -69.21751764 60.40761742 -74.75 64 C-81.22588778 68.20495989 -87.73219265 72.36033421 -94.25 76.5 C-102.22935216 81.56890423 -110.18736053 86.6682724 -118.11328125 91.8203125 C-121.07999747 93.74749594 -124.05840924 95.65525894 -127.04296875 97.5546875 C-127.83018311 98.05782471 -128.61739746 98.56096191 -129.4284668 99.0793457 C-130.94442643 100.04784447 -132.46272462 101.01269517 -133.98364258 101.97338867 C-137.70495656 104.16008272 -137.70495656 104.16008272 -140.25 107.5 C-140.37086168 109.68474183 -140.4274762 111.87313 -140.45532227 114.06103516 C-140.46535499 114.74521704 -140.47538771 115.42939892 -140.48572445 116.13431358 C-140.51714682 118.35252859 -140.54189589 120.57076145 -140.56640625 122.7890625 C-140.58480626 124.15715116 -140.60364275 125.52523403 -140.6229248 126.89331055 C-140.69141246 131.97047169 -140.75143962 137.0477441 -140.8125 142.125 C-140.956875 153.46875 -141.10125 164.8125 -141.25 176.5 C-167.65 176.5 -194.05 176.5 -221.25 176.5 C-221.25 171.22 -221.25 165.94 -221.25 160.5 C-200.13 160.5 -179.01 160.5 -157.25 160.5 C-157.36601562 155.23933594 -157.48203125 149.97867188 -157.6015625 144.55859375 C-157.65268313 141.21797503 -157.70082016 137.87784105 -157.73828125 134.53710938 C-157.79797948 129.23847853 -157.86845027 123.94158172 -158.00439453 118.64428711 C-158.11336341 114.37120219 -158.1729024 110.0999766 -158.19877243 105.82560921 C-158.21719673 104.1983112 -158.25318087 102.57111086 -158.30730057 100.94460869 C-158.71405262 88.20916801 -158.71405262 88.20916801 -155.10676575 83.99794006 C-152.55584813 82.18882683 -150.07583674 80.82711171 -147.25 79.5 C-145.8198157 78.60384121 -144.3993482 77.69167202 -142.99609375 76.75390625 C-141.56129172 75.85454006 -140.12503667 74.95748868 -138.6875 74.0625 C-137.03210661 73.02414737 -135.377184 71.98504392 -133.72265625 70.9453125 C-132.84496582 70.39391602 -131.96727539 69.84251953 -131.06298828 69.27441406 C-125.90201691 66.01890808 -120.76365126 62.7280841 -115.625 59.4375 C-114.55113037 58.74986572 -113.47726074 58.06223145 -112.37084961 57.35375977 C-105.8232825 53.15752614 -99.28788208 48.94309924 -92.76318359 44.71142578 C-86.606715 40.72229292 -80.42955752 36.7657491 -74.25 32.8125 C-73.19723877 32.13896484 -72.14447754 31.46542969 -71.05981445 30.77148438 C-65.5455492 27.24462355 -60.02943777 23.72067358 -54.51171875 20.19921875 C-52.85946289 19.14383911 -52.85946289 19.14383911 -51.17382812 18.06713867 C-49.09113982 16.73686394 -47.00785405 15.40752392 -44.92382812 14.0793457 C-43.96283203 13.46534912 -43.00183594 12.85135254 -42.01171875 12.21875 C-41.04637207 11.61869141 -40.08102539 11.01863281 -39.08642578 10.40039062 C-36.20976443 8.56128627 -36.20976443 8.56128627 -33.70654297 6.27148438 C-23.69278518 -2.00894703 -12.35843033 -0.3919203 0 0 Z " fill="#006CEF" transform="translate(437.25,159.5)"/>
<path d="M0 0 C11.39729158 9.66470745 20.09518314 23.54125337 22.625 38.41796875 C24.23937128 58.92760343 21.29098323 77.34926282 7.69335938 93.38452148 C-2.61035178 104.82681458 -17.41932536 113.39367446 -32.96582031 114.62280273 C-53.1864446 115.34707409 -70.47751763 111.97080234 -85.875 98.10546875 C-97.40937764 87.19349725 -105.05326421 71.89142881 -105.7109375 55.96484375 C-105.87889452 45.10702571 -105.80390386 35.49554016 -101.375 25.41796875 C-100.83166016 24.10699219 -100.83166016 24.10699219 -100.27734375 22.76953125 C-92.57504006 5.79835363 -78.3307337 -4.88153347 -61.515625 -11.75 C-40.72526515 -18.14934487 -16.86893895 -13.4143956 0 0 Z M-78.078125 18.57421875 C-87.60369661 30.3677836 -90.65964493 42.51608759 -89.375 57.41796875 C-86.79901368 70.29790037 -80.6592907 81.16608617 -70.375 89.41796875 C-57.21057859 97.77937095 -44.55747684 100.693345 -29.125 97.29296875 C-17.10178111 93.79559811 -6.67169058 86.96229641 -0.265625 75.9765625 C6.30678607 63.82905883 8.79381758 51.43600013 5.5 37.79296875 C1.51430482 25.13792737 -5.82927938 14.68518724 -17.66601562 8.33520508 C-38.74215793 -2.20567174 -61.65562173 1.21029809 -78.078125 18.57421875 Z " fill="#000101" transform="translate(297.375,381.58203125)"/>
<path d="M0 0 C11.39729158 9.66470745 20.09518314 23.54125337 22.625 38.41796875 C24.23937128 58.92760343 21.29098323 77.34926282 7.69335938 93.38452148 C-2.61035178 104.82681458 -17.41932536 113.39367446 -32.96582031 114.62280273 C-53.1864446 115.34707409 -70.47751763 111.97080234 -85.875 98.10546875 C-97.40937764 87.19349725 -105.05326421 71.89142881 -105.7109375 55.96484375 C-105.87889452 45.10702571 -105.80390386 35.49554016 -101.375 25.41796875 C-100.83166016 24.10699219 -100.83166016 24.10699219 -100.27734375 22.76953125 C-92.57504006 5.79835363 -78.3307337 -4.88153347 -61.515625 -11.75 C-40.72526515 -18.14934487 -16.86893895 -13.4143956 0 0 Z M-78.078125 18.57421875 C-87.60369661 30.3677836 -90.65964493 42.51608759 -89.375 57.41796875 C-86.79901368 70.29790037 -80.6592907 81.16608617 -70.375 89.41796875 C-57.21057859 97.77937095 -44.55747684 100.693345 -29.125 97.29296875 C-17.10178111 93.79559811 -6.67169058 86.96229641 -0.265625 75.9765625 C6.30678607 63.82905883 8.79381758 51.43600013 5.5 37.79296875 C1.51430482 25.13792737 -5.82927938 14.68518724 -17.66601562 8.33520508 C-38.74215793 -2.20567174 -61.65562173 1.21029809 -78.078125 18.57421875 Z " fill="#000101" transform="translate(473.375,333.58203125)"/>
<path d="M0 0 C11.39729158 9.66470745 20.09518314 23.54125337 22.625 38.41796875 C24.23937128 58.92760343 21.29098323 77.34926282 7.69335938 93.38452148 C-2.61035178 104.82681458 -17.41932536 113.39367446 -32.96582031 114.62280273 C-53.1864446 115.34707409 -70.47751763 111.97080234 -85.875 98.10546875 C-97.40937764 87.19349725 -105.05326421 71.89142881 -105.7109375 55.96484375 C-105.87889452 45.10702571 -105.80390386 35.49554016 -101.375 25.41796875 C-100.83166016 24.10699219 -100.83166016 24.10699219 -100.27734375 22.76953125 C-92.57504006 5.79835363 -78.3307337 -4.88153347 -61.515625 -11.75 C-40.72526515 -18.14934487 -16.86893895 -13.4143956 0 0 Z M-78.078125 18.57421875 C-87.60369661 30.3677836 -90.65964493 42.51608759 -89.375 57.41796875 C-86.79901368 70.29790037 -80.6592907 81.16608617 -70.375 89.41796875 C-57.21057859 97.77937095 -44.55747684 100.693345 -29.125 97.29296875 C-17.10178111 93.79559811 -6.67169058 86.96229641 -0.265625 75.9765625 C6.30678607 63.82905883 8.79381758 51.43600013 5.5 37.79296875 C1.51430482 25.13792737 -5.82927938 14.68518724 -17.66601562 8.33520508 C-38.74215793 -2.20567174 -61.65562173 1.21029809 -78.078125 18.57421875 Z " fill="#000101" transform="translate(121.375,333.58203125)"/>
<path d="M0 0 C8.80288754 6.34043826 15.4186507 14.72648904 17.58203125 25.4921875 C18.92007691 37.90936834 17.85729499 48.88109459 10.39453125 59.2421875 C3.58210875 67.3274193 -4.72289951 73.55522767 -15.48876953 74.71533203 C-28.40007937 75.61089799 -39.16843729 74.04490094 -49.3515625 65.46484375 C-57.86959925 57.33325857 -62.42046403 48.68416257 -62.88867188 36.85693359 C-63.04371176 24.34263074 -60.22647828 14.71931927 -51.41796875 5.4921875 C-37.63784493 -7.66275112 -16.31305228 -10.17259803 0 0 Z " fill="#010000" transform="translate(206.41796875,21.5078125)"/>
<path d="M0 0 C8.34468007 4.97590182 13.53387008 11.86345977 16.109375 21.2578125 C17.10789012 32.35758522 16.45884702 41.9922991 9.359375 51.0703125 C3.70168013 57.1280464 -3.34488592 60.84888618 -11.625 61.59375 C-22.35447774 61.83515993 -31.19802606 60.58332943 -39.359375 52.9609375 C-46.75303791 44.73737365 -48.47252567 36.02335615 -48.203125 25.24609375 C-47.72879865 16.86039919 -44.11592977 9.8548755 -37.890625 4.2578125 C-27.15195714 -3.81766573 -12.32399863 -5.91386512 0 0 Z " fill="#000000" transform="translate(279.890625,66.7421875)"/>
<path d="M0 0 C8.34468007 4.97590182 13.53387008 11.86345977 16.109375 21.2578125 C17.10789012 32.35758522 16.45884702 41.9922991 9.359375 51.0703125 C3.70168013 57.1280464 -3.34488592 60.84888618 -11.625 61.59375 C-22.35447774 61.83515993 -31.19802606 60.58332943 -39.359375 52.9609375 C-46.75303791 44.73737365 -48.47252567 36.02335615 -48.203125 25.24609375 C-47.72879865 16.86039919 -44.11592977 9.8548755 -37.890625 4.2578125 C-27.15195714 -3.81766573 -12.32399863 -5.91386512 0 0 Z " fill="#000000" transform="translate(479.890625,42.7421875)"/>
<path d="M0 0 C6.69837098 4.56302691 12.13922146 11.68048232 13.74609375 19.71484375 C14.65503706 30.12637619 12.65990273 39.12171811 6.5390625 47.67578125 C0.6895931 54.328119 -7.45461128 58.08600454 -16.171875 59.03125 C-23.11945207 59.30422198 -28.28883519 58.28273672 -34.25390625 54.71484375 C-35.30384766 54.09609375 -35.30384766 54.09609375 -36.375 53.46484375 C-43.1300852 48.96996664 -46.61597211 42.73522755 -49.62890625 35.33984375 C-51.58680709 23.98401887 -49.98246843 15.98165265 -43.56640625 6.52734375 C-32.45628051 -7.56423345 -14.91988004 -8.50717597 0 0 Z " fill="#FDDC54" transform="translate(90.25390625,53.28515625)"/>
<path d="M0 0 C6.69837098 4.56302691 12.13922146 11.68048232 13.74609375 19.71484375 C14.65503706 30.12637619 12.65990273 39.12171811 6.5390625 47.67578125 C0.6895931 54.328119 -7.45461128 58.08600454 -16.171875 59.03125 C-23.11945207 59.30422198 -28.28883519 58.28273672 -34.25390625 54.71484375 C-35.30384766 54.09609375 -35.30384766 54.09609375 -36.375 53.46484375 C-43.1300852 48.96996664 -46.61597211 42.73522755 -49.62890625 35.33984375 C-51.58680709 23.98401887 -49.98246843 15.98165265 -43.56640625 6.52734375 C-32.45628051 -7.56423345 -14.91988004 -8.50717597 0 0 Z " fill="#FDDC54" transform="translate(378.25390625,37.28515625)"/>
<path d="M0 0 C2.30615423 3.27889228 2.08750102 6.24703455 1.8984375 10.09375 C1.88039063 10.79113281 1.86234375 11.48851562 1.84375 12.20703125 C1.79682304 13.91986539 1.72508355 15.63198824 1.6484375 17.34375 C-0.6615625 16.68375 -2.9715625 16.02375 -5.3515625 15.34375 C-5.88112549 16.24730225 -6.41068848 17.15085449 -6.95629883 18.08178711 C-8.92098026 21.42858645 -10.89728375 24.76839412 -12.87719727 28.10620117 C-13.73293225 29.55255726 -14.58549177 31.00079696 -15.43481445 32.45092773 C-16.6552925 34.53350645 -17.88698298 36.60907211 -19.12109375 38.68359375 C-19.49933792 39.33464584 -19.87758209 39.98569794 -20.26728821 40.65647888 C-23.00994738 45.22987829 -23.00994738 45.22987829 -26.3515625 46.34375 C-29.44294392 44.5305359 -32.3293953 42.56219949 -35.2578125 40.50390625 C-36.91005784 39.3802394 -38.62802522 38.35467091 -40.3515625 37.34375 C-43.95010599 38.5432645 -44.53773065 39.62300223 -46.6015625 42.71875 C-47.14296875 43.51023437 -47.684375 44.30171875 -48.2421875 45.1171875 C-49.71771196 47.42215656 -49.71771196 47.42215656 -48.3515625 50.34375 C-46.86363136 51.6353543 -46.86363136 51.6353543 -45.0078125 52.75390625 C-44.33878906 53.18638672 -43.66976562 53.61886719 -42.98046875 54.06445312 C-42.27792969 54.50724609 -41.57539063 54.95003906 -40.8515625 55.40625 C-39.46346871 56.28877202 -38.07791547 57.17530665 -36.6953125 58.06640625 C-35.77008789 58.65047241 -35.77008789 58.65047241 -34.82617188 59.24633789 C-33.3515625 60.34375 -33.3515625 60.34375 -32.3515625 62.34375 C-42.21095803 65.79453844 -51.88953568 67.97919327 -62.3515625 66.34375 C-67.88885586 62.37255981 -69.02131357 55.7016577 -70.3515625 49.34375 C-71.78087946 34.9563397 -68.32846693 21.9764053 -59.1953125 10.67578125 C-44.89589531 -4.66823622 -18.80383205 -13.243895 0 0 Z " fill="#45F5FC" transform="translate(278.3515625,389.65625)"/>
<path d="M0 0 C2.30615423 3.27889228 2.08750102 6.24703455 1.8984375 10.09375 C1.88039063 10.79113281 1.86234375 11.48851562 1.84375 12.20703125 C1.79682304 13.91986539 1.72508355 15.63198824 1.6484375 17.34375 C-0.6615625 16.68375 -2.9715625 16.02375 -5.3515625 15.34375 C-5.88112549 16.24730225 -6.41068848 17.15085449 -6.95629883 18.08178711 C-8.92098026 21.42858645 -10.89728375 24.76839412 -12.87719727 28.10620117 C-13.73293225 29.55255726 -14.58549177 31.00079696 -15.43481445 32.45092773 C-16.6552925 34.53350645 -17.88698298 36.60907211 -19.12109375 38.68359375 C-19.49933792 39.33464584 -19.87758209 39.98569794 -20.26728821 40.65647888 C-23.00994738 45.22987829 -23.00994738 45.22987829 -26.3515625 46.34375 C-29.44294392 44.5305359 -32.3293953 42.56219949 -35.2578125 40.50390625 C-36.91005784 39.3802394 -38.62802522 38.35467091 -40.3515625 37.34375 C-43.95010599 38.5432645 -44.53773065 39.62300223 -46.6015625 42.71875 C-47.14296875 43.51023437 -47.684375 44.30171875 -48.2421875 45.1171875 C-49.71771196 47.42215656 -49.71771196 47.42215656 -48.3515625 50.34375 C-46.86363136 51.6353543 -46.86363136 51.6353543 -45.0078125 52.75390625 C-44.33878906 53.18638672 -43.66976563 53.61886719 -42.98046875 54.06445312 C-42.27792969 54.50724609 -41.57539063 54.95003906 -40.8515625 55.40625 C-39.46346871 56.28877202 -38.07791547 57.17530665 -36.6953125 58.06640625 C-35.77008789 58.65047241 -35.77008789 58.65047241 -34.82617188 59.24633789 C-33.3515625 60.34375 -33.3515625 60.34375 -32.3515625 62.34375 C-42.21095803 65.79453844 -51.88953568 67.97919327 -62.3515625 66.34375 C-67.88885586 62.37255981 -69.02131357 55.7016577 -70.3515625 49.34375 C-71.78087946 34.9563397 -68.32846693 21.9764053 -59.1953125 10.67578125 C-44.89589531 -4.66823622 -18.80383205 -13.243895 0 0 Z " fill="#45F5FC" transform="translate(454.3515625,341.65625)"/>
<path d="M0 0 C2.30615423 3.27889228 2.08750102 6.24703455 1.8984375 10.09375 C1.88039063 10.79113281 1.86234375 11.48851562 1.84375 12.20703125 C1.79682304 13.91986539 1.72508355 15.63198824 1.6484375 17.34375 C-0.6615625 16.68375 -2.9715625 16.02375 -5.3515625 15.34375 C-5.88112549 16.24730225 -6.41068848 17.15085449 -6.95629883 18.08178711 C-8.92098026 21.42858645 -10.89728375 24.76839412 -12.87719727 28.10620117 C-13.73293225 29.55255726 -14.58549177 31.00079696 -15.43481445 32.45092773 C-16.6552925 34.53350645 -17.88698298 36.60907211 -19.12109375 38.68359375 C-19.49933792 39.33464584 -19.87758209 39.98569794 -20.26728821 40.65647888 C-23.00994738 45.22987829 -23.00994738 45.22987829 -26.3515625 46.34375 C-29.44294392 44.5305359 -32.3293953 42.56219949 -35.2578125 40.50390625 C-36.91005784 39.3802394 -38.62802522 38.35467091 -40.3515625 37.34375 C-43.95010599 38.5432645 -44.53773065 39.62300223 -46.6015625 42.71875 C-47.14296875 43.51023437 -47.684375 44.30171875 -48.2421875 45.1171875 C-49.71771196 47.42215656 -49.71771196 47.42215656 -48.3515625 50.34375 C-46.86363136 51.6353543 -46.86363136 51.6353543 -45.0078125 52.75390625 C-44.33878906 53.18638672 -43.66976562 53.61886719 -42.98046875 54.06445312 C-42.27792969 54.50724609 -41.57539062 54.95003906 -40.8515625 55.40625 C-39.46346871 56.28877202 -38.07791547 57.17530665 -36.6953125 58.06640625 C-35.77008789 58.65047241 -35.77008789 58.65047241 -34.82617188 59.24633789 C-33.3515625 60.34375 -33.3515625 60.34375 -32.3515625 62.34375 C-42.21095803 65.79453844 -51.88953568 67.97919327 -62.3515625 66.34375 C-67.88885586 62.37255981 -69.02131357 55.7016577 -70.3515625 49.34375 C-71.78087946 34.9563397 -68.32846693 21.9764053 -59.1953125 10.67578125 C-44.89589531 -4.66823622 -18.80383205 -13.243895 0 0 Z " fill="#45F5FC" transform="translate(102.3515625,341.65625)"/>
<path d="M0 0 C5.28 0 10.56 0 16 0 C16.33 19.47 16.66 38.94 17 59 C19.64 56.36 22.28 53.72 25 51 C29.01345682 52.0033642 29.93072377 52.51984382 32.6875 55.3125 C33.28949219 55.90675781 33.89148438 56.50101563 34.51171875 57.11328125 C36.22987374 59.29141475 36.88862799 60.2175255 37 63 C35.37153931 65.09020242 33.81685263 66.78875698 31.91796875 68.60546875 C31.12390373 69.39247917 31.12390373 69.39247917 30.313797 70.19538879 C28.61637485 71.8714287 26.90210643 73.52906295 25.1875 75.1875 C24.04253753 76.31596026 22.89864314 77.44550532 21.75585938 78.57617188 C12.45931213 87.72203578 12.45931213 87.72203578 8.375 88.5 C0.15844194 87.28273214 -6.87091586 77.25117542 -12.5 71.5625 C-13.32242188 70.73556641 -14.14484375 69.90863281 -14.9921875 69.05664062 C-16.99712113 67.04005041 -18.99966253 65.02114764 -21 63 C-19.39464713 59.58940597 -17.59481099 57.38207516 -14.875 54.75 C-14.15054688 54.04359375 -13.42609375 53.3371875 -12.6796875 52.609375 C-12.12539062 52.07828125 -11.57109375 51.5471875 -11 51 C-6.37866085 52.77743813 -4.93994379 55.06005621 -1 59 C-0.67 39.53 -0.34 20.06 0 0 Z " fill="#000102" transform="translate(248,176)"/>
<path d="M0 0 C6.21859524 3.64269177 11.57723728 9.67325234 13.75 16.5625 C14.91799552 24.56634299 13.36092605 30.94227872 8.75 37.5625 C4.28317587 42.59165591 -1.06763217 46.05459626 -7.85546875 46.87890625 C-14.18396585 47.14950406 -19.15446332 46.46458104 -24.25 42.5625 C-29.42895097 37.63191791 -33.71774606 33.0495245 -34.5859375 25.73046875 C-34.69244394 17.60402713 -33.84487158 12.33174968 -28.15625 6.3671875 C-20.19363365 -1.03804571 -10.66278676 -4.62406 0 0 Z " fill="#FCDB53" transform="translate(194.25,33.4375)"/>
<path d="M0 0 C7.94991496 4.22220364 13.75665944 10.04802084 16.56640625 18.84375 C18.55992096 28.75744478 16.54483369 38.16233181 11.375 46.75 C6.28039989 53.8698609 -1.44193229 58.34844307 -10 60 C-20.75952753 61.16669576 -28.45345794 58.35512102 -37 52 C-37 51.67 -37 51.34 -37 51 C-36.26136719 50.92523438 -35.52273437 50.85046875 -34.76171875 50.7734375 C-23.37265298 49.29734511 -15.00172912 45.24328492 -7.65234375 36.30078125 C-5.30810695 33.03658391 -3.46173736 29.74117928 -2 26 C-1.6390625 25.14535156 -1.278125 24.29070312 -0.90625 23.41015625 C0.32700024 18.76952063 0.21358116 14.40156885 0.125 9.625 C0.11597656 8.69816406 0.10695312 7.77132812 0.09765625 6.81640625 C0.07422937 4.54399923 0.04142748 2.2721382 0 0 Z " fill="#E8BC00" transform="translate(87,52)"/>
<path d="M0 0 C7.94991496 4.22220364 13.75665944 10.04802084 16.56640625 18.84375 C18.55992096 28.75744478 16.54483369 38.16233181 11.375 46.75 C6.28039989 53.8698609 -1.44193229 58.34844307 -10 60 C-20.75952753 61.16669576 -28.45345794 58.35512102 -37 52 C-37 51.67 -37 51.34 -37 51 C-36.26136719 50.92523438 -35.52273438 50.85046875 -34.76171875 50.7734375 C-23.37265298 49.29734511 -15.00172912 45.24328492 -7.65234375 36.30078125 C-5.30810695 33.03658391 -3.46173736 29.74117928 -2 26 C-1.6390625 25.14535156 -1.278125 24.29070313 -0.90625 23.41015625 C0.32700024 18.76952063 0.21358116 14.40156885 0.125 9.625 C0.11597656 8.69816406 0.10695313 7.77132812 0.09765625 6.81640625 C0.07422937 4.54399923 0.04142748 2.2721382 0 0 Z " fill="#E8BC00" transform="translate(375,36)"/>
<path d="M0 0 C1.21097645 0.57782633 2.41862539 1.16262659 3.625 1.75 C4.29789062 2.07484375 4.97078125 2.3996875 5.6640625 2.734375 C8.57109496 4.30942269 11.25837241 6.15473688 14 8 C8.88199034 17.04045782 3.67302797 26.01881553 -1.7019043 34.90917969 C-2.45419528 36.15610736 -3.20345661 37.40486701 -3.94995117 38.65527344 C-5.05015676 40.49802897 -6.15877412 42.33546532 -7.26953125 44.171875 C-8.23789917 45.7820752 -8.23789917 45.7820752 -9.22583008 47.42480469 C-11 50 -11 50 -14 52 C-19.03210471 52.59713265 -21.66955592 51.39891434 -25.8359375 48.640625 C-27.43115234 47.58488281 -27.43115234 47.58488281 -29.05859375 46.5078125 C-29.87432861 45.9514209 -29.87432861 45.9514209 -30.70654297 45.38378906 C-32.37845385 44.24765296 -34.06816143 43.14259681 -35.76171875 42.0390625 C-36.81746094 41.33007812 -37.87320313 40.62109375 -38.9609375 39.890625 C-39.92821777 39.24125977 -40.89549805 38.59189453 -41.89208984 37.92285156 C-42.5877002 37.28831055 -43.28331055 36.65376953 -44 36 C-44 31.39503026 -43.15917792 30.35888432 -40.5 26.75 C-39.8503125 25.85796875 -39.200625 24.9659375 -38.53125 24.046875 C-38.0259375 23.37140625 -37.520625 22.6959375 -37 22 C-31.97317832 23.81295208 -27.85750339 26.60057286 -23.42578125 29.5390625 C-21.18641014 31.17197169 -21.18641014 31.17197169 -19 31 C-17.53768895 28.85145835 -16.2078398 26.71472675 -14.90234375 24.47265625 C-14.50801651 23.80914658 -14.11368927 23.1456369 -13.70741272 22.46202087 C-12.44381578 20.33287887 -11.19039302 18.19795513 -9.9375 16.0625 C-8.67905537 13.93184703 -7.41858059 11.80241453 -6.15687561 9.6736908 C-5.37103029 8.346271 -4.58747622 7.0174917 -3.80638123 5.68727112 C-1.10866286 1.10866286 -1.10866286 1.10866286 0 0 Z " fill="#000404" transform="translate(273,404)"/>
<path d="M0 0 C1.21097645 0.57782633 2.41862539 1.16262659 3.625 1.75 C4.29789062 2.07484375 4.97078125 2.3996875 5.6640625 2.734375 C8.57109496 4.30942269 11.25837241 6.15473688 14 8 C8.88199034 17.04045782 3.67302797 26.01881553 -1.7019043 34.90917969 C-2.45419528 36.15610736 -3.20345661 37.40486701 -3.94995117 38.65527344 C-5.05015676 40.49802897 -6.15877412 42.33546532 -7.26953125 44.171875 C-8.23789917 45.7820752 -8.23789917 45.7820752 -9.22583008 47.42480469 C-11 50 -11 50 -14 52 C-19.03210471 52.59713265 -21.66955592 51.39891434 -25.8359375 48.640625 C-27.43115234 47.58488281 -27.43115234 47.58488281 -29.05859375 46.5078125 C-29.87432861 45.9514209 -29.87432861 45.9514209 -30.70654297 45.38378906 C-32.37845385 44.24765296 -34.06816143 43.14259681 -35.76171875 42.0390625 C-36.81746094 41.33007812 -37.87320312 40.62109375 -38.9609375 39.890625 C-39.92821777 39.24125977 -40.89549805 38.59189453 -41.89208984 37.92285156 C-42.5877002 37.28831055 -43.28331055 36.65376953 -44 36 C-44 31.39503026 -43.15917792 30.35888432 -40.5 26.75 C-39.8503125 25.85796875 -39.200625 24.9659375 -38.53125 24.046875 C-38.0259375 23.37140625 -37.520625 22.6959375 -37 22 C-31.97317832 23.81295208 -27.85750339 26.60057286 -23.42578125 29.5390625 C-21.18641014 31.17197169 -21.18641014 31.17197169 -19 31 C-17.53768895 28.85145835 -16.2078398 26.71472675 -14.90234375 24.47265625 C-14.50801651 23.80914658 -14.11368927 23.1456369 -13.70741272 22.46202087 C-12.44381578 20.33287887 -11.19039302 18.19795513 -9.9375 16.0625 C-8.67905537 13.93184703 -7.41858059 11.80241453 -6.15687561 9.6736908 C-5.37103029 8.346271 -4.58747622 7.0174917 -3.80638123 5.68727112 C-1.10866286 1.10866286 -1.10866286 1.10866286 0 0 Z " fill="#000404" transform="translate(449,356)"/>
<path d="M0 0 C1.21097645 0.57782633 2.41862539 1.16262659 3.625 1.75 C4.29789063 2.07484375 4.97078125 2.3996875 5.6640625 2.734375 C8.57109496 4.30942269 11.25837241 6.15473688 14 8 C8.88199034 17.04045782 3.67302797 26.01881553 -1.7019043 34.90917969 C-2.45419528 36.15610736 -3.20345661 37.40486701 -3.94995117 38.65527344 C-5.05015676 40.49802897 -6.15877412 42.33546532 -7.26953125 44.171875 C-8.23789917 45.7820752 -8.23789917 45.7820752 -9.22583008 47.42480469 C-11 50 -11 50 -14 52 C-19.03210471 52.59713265 -21.66955592 51.39891434 -25.8359375 48.640625 C-27.43115234 47.58488281 -27.43115234 47.58488281 -29.05859375 46.5078125 C-29.87432861 45.9514209 -29.87432861 45.9514209 -30.70654297 45.38378906 C-32.37845385 44.24765296 -34.06816143 43.14259681 -35.76171875 42.0390625 C-36.81746094 41.33007812 -37.87320313 40.62109375 -38.9609375 39.890625 C-39.92821777 39.24125977 -40.89549805 38.59189453 -41.89208984 37.92285156 C-42.5877002 37.28831055 -43.28331055 36.65376953 -44 36 C-44 31.39503026 -43.15917792 30.35888432 -40.5 26.75 C-39.8503125 25.85796875 -39.200625 24.9659375 -38.53125 24.046875 C-38.0259375 23.37140625 -37.520625 22.6959375 -37 22 C-31.97317832 23.81295208 -27.85750339 26.60057286 -23.42578125 29.5390625 C-21.18641014 31.17197169 -21.18641014 31.17197169 -19 31 C-17.53768895 28.85145835 -16.2078398 26.71472675 -14.90234375 24.47265625 C-14.50801651 23.80914658 -14.11368927 23.1456369 -13.70741272 22.46202087 C-12.44381578 20.33287887 -11.19039302 18.19795513 -9.9375 16.0625 C-8.67905537 13.93184703 -7.41858059 11.80241453 -6.15687561 9.6736908 C-5.37103029 8.346271 -4.58747622 7.0174917 -3.80638123 5.68727112 C-1.10866286 1.10866286 -1.10866286 1.10866286 0 0 Z " fill="#000404" transform="translate(97,356)"/>
<path d="M0 0 C4.35699098 2.46622131 7.04335342 5.33670683 9.3125 9.875 C10.1256597 15.41272046 9.96889753 19.69106213 6.625 24.3125 C3.4441717 27.96565548 0.9670803 30.52254312 -4.01171875 31.18359375 C-9.76237781 31.46725855 -13.23123338 30.80075869 -17.6875 26.875 C-22.17485572 22.02380463 -23.06694978 18.50237243 -22.96875 11.8984375 C-22.33090739 7.3095143 -19.40142374 4.50393282 -16.0625 1.5625 C-10.83094803 -2.15465535 -5.95356591 -1.81634214 0 0 Z " fill="#E4B900" transform="translate(270.6875,81.125)"/>
<path d="M0 0 C4.35699098 2.46622131 7.04335342 5.33670683 9.3125 9.875 C10.1256597 15.41272046 9.96889753 19.69106213 6.625 24.3125 C3.4441717 27.96565548 0.9670803 30.52254312 -4.01171875 31.18359375 C-9.76237781 31.46725855 -13.23123338 30.80075869 -17.6875 26.875 C-22.17485572 22.02380463 -23.06694978 18.50237243 -22.96875 11.8984375 C-22.33090739 7.3095143 -19.40142374 4.50393282 -16.0625 1.5625 C-10.83094803 -2.15465535 -5.95356591 -1.81634214 0 0 Z " fill="#E4B900" transform="translate(470.6875,57.125)"/>
<path d="M0 0 C5.35629412 4.922 8.11769221 8.91382349 8.5 16.25 C8.28415396 23.14768852 5.93884807 28.69117818 1.35546875 33.8515625 C-4.76325234 39.45923916 -11.02063311 41.59397071 -19.27734375 41.35546875 C-24.37359593 40.69010441 -28.47867736 38.89473819 -31.71875 34.859375 C-32.1415625 34.24578125 -32.564375 33.6321875 -33 33 C-32.07380859 32.85304688 -32.07380859 32.85304688 -31.12890625 32.703125 C-22.25621833 31.13656214 -14.43607994 28.58235448 -8 22 C-6.10009994 19.10265241 -4.50943542 16.11606933 -3 13 C-2.5875 12.154375 -2.175 11.30875 -1.75 10.4375 C-0.68701616 6.98280252 -0.36561164 3.59518113 0 0 Z " fill="#E6BB00" transform="translate(200,39)"/>
<path d="M0 0 C3 1 3 1 5 2 C4.17997827 10.40522277 0.25272685 15.35944269 -6.046875 20.55078125 C-9.43239774 23.06283913 -11.59162867 24.18778284 -15.8125 23.625 C-16.8953125 23.315625 -16.8953125 23.315625 -18 23 C-19.30016389 19.09950834 -19.56378909 15.05614932 -19 11 C-14.71903677 2.75518194 -9.13666607 -0.75119817 0 0 Z " fill="#FAD952" transform="translate(267,80)"/>
<path d="M0 0 C3 1 3 1 5 2 C4.17997827 10.40522277 0.25272685 15.35944269 -6.046875 20.55078125 C-9.43239774 23.06283913 -11.59162867 24.18778284 -15.8125 23.625 C-16.8953125 23.315625 -16.8953125 23.315625 -18 23 C-19.30016389 19.09950834 -19.56378909 15.05614932 -19 11 C-14.71903677 2.75518194 -9.13666607 -0.75119817 0 0 Z " fill="#FAD952" transform="translate(467,56)"/>
</svg>
